<?xml version="1.0" encoding="UTF-8"?> <svg xmlns="http://www.w3.org/2000/svg" width="52" height="100" viewBox="0 0 52 100" fill="none"><g clip-path="url(#clip0_929_16310)"><path d="M6.24266 13.7775C6.53836 13.6691 6.80472 13.4966 7.04119 13.26V11.2388L5.60184 11.3473C5.01024 11.3935 4.57973 11.5297 4.31035 11.7564C4.04076 11.9832 3.90615 12.3003 3.90615 12.7079C3.90615 13.1089 4.02769 13.4144 4.27095 13.6248C4.51385 13.8351 4.86883 13.9401 5.33564 13.9401C5.64462 13.9401 5.94692 13.886 6.24266 13.7775M7.99758 5.41237C8.72037 5.70179 9.25596 6.17643 9.60446 6.83692C9.95263 7.49746 10.127 8.39307 10.127 9.52348V15.9316H7.5243L7.30735 14.8668H7.1595C6.84408 15.2943 6.43972 15.6112 5.94692 15.8182C5.45395 16.0253 4.90517 16.1288 4.30049 16.1288C3.5775 16.1288 2.95314 15.999 2.42725 15.7394C1.90153 15.4798 1.499 15.115 1.2196 14.645C0.940198 14.1753 0.800659 13.6282 0.800659 13.0036C0.800659 11.9719 1.16053 11.1733 1.8803 10.608C2.59987 10.0428 3.7352 9.71073 5.28626 9.61225L7.04119 9.4644V9.32621C7.04119 8.82681 6.96056 8.43585 6.79963 8.15323C6.6385 7.87057 6.3822 7.66857 6.03064 7.54684C5.67905 7.42531 5.19765 7.36436 4.58637 7.36436C4.14584 7.36436 3.6646 7.4007 3.14209 7.47285C2.61959 7.54533 2.12491 7.65383 1.65826 7.79825V5.43205C2.17107 5.28758 2.73941 5.17591 3.36393 5.09695C3.98829 5.01804 4.58311 4.97864 5.14839 4.97864C6.32463 4.97864 7.27443 5.12327 7.99758 5.41237" fill="#2CBBED"></path><path d="M11.793 0H14.9477V6.23067H15.0956C15.4636 5.82326 15.8975 5.51277 16.3969 5.29904C16.8963 5.08552 17.4519 4.97873 18.0632 4.97873C19.1278 4.97873 19.9821 5.32043 20.6263 6.00403C21.2704 6.68766 21.5926 7.75879 21.5926 9.21785V15.9316H18.4379V9.42494C18.4379 8.79398 18.3095 8.34701 18.0532 8.08423C17.7969 7.82145 17.419 7.68969 16.9194 7.68969C16.5512 7.68969 16.1883 7.76543 15.8301 7.9165C15.4717 8.06777 15.1777 8.28793 14.9477 8.57703V15.9316H11.793V0V0Z" fill="#2CBBED"></path><path d="M29.1834 13.4472C29.4855 13.25 29.7174 12.9198 29.8785 12.4565C30.0394 11.9931 30.1201 11.367 30.1201 10.5783C30.1201 9.7766 30.0394 9.139 29.8785 8.66571C29.7174 8.19242 29.484 7.85733 29.1786 7.66026C28.8729 7.46299 28.4899 7.36436 28.0299 7.36436C27.5699 7.36436 27.1871 7.46299 26.8813 7.66026C26.5759 7.85733 26.3425 8.1877 26.1814 8.65092C26.0203 9.11435 25.94 9.74381 25.94 10.539C25.94 11.3409 26.0203 11.9768 26.1814 12.4465C26.3425 12.9165 26.5741 13.25 26.8764 13.4472C27.1785 13.6444 27.5632 13.7429 28.0299 13.7429C28.4965 13.7429 28.881 13.6444 29.1834 13.4472M25.2153 15.5175C24.4299 15.1035 23.8252 14.4808 23.4012 13.6492C22.9773 12.8179 22.7653 11.7909 22.7653 10.5685C22.7653 8.71509 23.2223 7.32007 24.1359 6.38352C25.0492 5.447 26.3473 4.97864 28.0299 4.97864C29.7059 4.97864 31.0023 5.44851 31.9191 6.38828C32.8361 7.32838 33.2945 8.71509 33.2945 10.5488C33.2945 11.7778 33.0826 12.8098 32.6586 13.6444C32.2347 14.4792 31.6299 15.1035 30.8446 15.5175C30.0591 15.9316 29.1209 16.1387 28.0299 16.1387C26.9389 16.1387 26.0006 15.9316 25.2153 15.5175" fill="#2CBBED"></path><path d="M34.5564 5.14632H37.1295L37.3758 6.53625H37.5237C37.8196 6.01733 38.2139 5.63098 38.7069 5.37802C39.1999 5.1251 39.7585 4.99847 40.3829 4.99847C40.6985 4.99847 40.9876 5.02475 41.2505 5.07723V7.92638C40.9611 7.8673 40.6063 7.83777 40.1856 7.83777C39.7059 7.83777 39.2358 7.9298 38.7758 8.11379C38.3158 8.29781 37.961 8.5509 37.7111 8.87296V15.9317H34.5564V5.14632V5.14632Z" fill="#2CBBED"></path><path d="M47.2643 13.7775C47.56 13.6691 47.8263 13.4966 48.0628 13.26V11.2388L46.6234 11.3473C46.0318 11.3935 45.6014 11.5297 45.332 11.7564C45.0624 11.9832 44.9278 12.3003 44.9278 12.7079C44.9278 13.1089 45.0493 13.4144 45.2926 13.6248C45.5355 13.8351 45.8905 13.9401 46.3573 13.9401C46.6662 13.9401 46.9686 13.886 47.2643 13.7775M49.0192 5.41237C49.742 5.70179 50.2776 6.17643 50.6261 6.83692C50.9743 7.49746 51.1486 8.39307 51.1486 9.52348V15.9316H48.5459L48.329 14.8668H48.1811C47.8657 15.2943 47.4614 15.6112 46.9686 15.8182C46.4756 16.0253 45.9268 16.1288 45.3221 16.1288C44.5991 16.1288 43.9748 15.999 43.4489 15.7394C42.9231 15.4798 42.5206 15.115 42.2412 14.645C41.9618 14.1753 41.8223 13.6282 41.8223 13.0036C41.8223 11.9719 42.1822 11.1733 42.9019 10.608C43.6215 10.0428 44.7569 9.71073 46.3079 9.61225L48.0628 9.4644V9.32621C48.0628 8.82681 47.9822 8.43585 47.8212 8.15323C47.6601 7.87057 47.4038 7.66857 47.0522 7.54684C46.7007 7.42531 46.2193 7.36436 45.608 7.36436C45.1675 7.36436 44.6862 7.4007 44.1637 7.47285C43.6412 7.54533 43.1466 7.65383 42.6799 7.79825V5.43205C43.1927 5.28758 43.7611 5.17591 44.3856 5.09695C45.0099 5.01804 45.6048 4.97864 46.17 4.97864C47.3463 4.97864 48.296 5.12327 49.0192 5.41237" fill="#2CBBED"></path><path d="M12.0473 23.8466H19.2502V61.9365H8.09983V36.7909L0 42.2763V31.9977L12.0473 23.8466V23.8466Z" fill="#2CBBED"></path><path d="M51.1882 52.8112V61.9364H24.3508V55.9897L34.5782 43.8655C36.0136 42.1396 37.0345 40.6829 37.6413 39.4951C38.2478 38.3075 38.5513 37.2009 38.5513 36.1756C38.5513 34.8939 38.0772 33.9372 37.1287 33.3047C36.1803 32.6729 34.604 32.3562 32.3994 32.3562C30.9295 32.3562 29.43 32.489 27.9009 32.7537C26.3714 33.0188 25.0257 33.3733 23.8638 33.8174V24.8972C25.0597 24.5044 26.5977 24.1712 28.4777 23.8975C30.3572 23.6244 32.0829 23.4874 33.6554 23.4874C38.9871 23.4874 42.9641 24.4231 45.5875 26.2942C48.2103 28.1654 49.522 31.0836 49.522 35.0477C49.522 36.9959 49.1248 38.9227 48.33 40.8279C47.5354 42.7336 46.1981 44.7542 44.3185 46.89L39.0896 52.8112H51.1882Z" fill="#2CBBED"></path><path d="M23.2418 98.7257L2.48262 77.308C0.0807219 74.8296 1.97384 70.8796 5.56346 70.8796H47.082C50.6718 70.8796 52.5649 74.8296 50.1629 77.308L29.4037 98.7257C27.7571 100.425 24.8888 100.425 23.242 98.7257" fill="#2CBBED"></path></g><defs><clipPath id="clip0_929_16310"><rect width="51.24" height="100" fill="white"></rect></clipPath></defs></svg> 