<?xml version="1.0" encoding="UTF-8"?> <svg xmlns="http://www.w3.org/2000/svg" width="100" height="100" viewBox="0 0 100 100" fill="none"><g clip-path="url(#clip0_931_16639)"><rect width="100" height="100" fill="#006FCF"></rect><path d="M87.5556 48.4889H95.1111V30.9333H86.8889V33.3778L85.3333 30.9333H78.2222V34.0445L76.8889 30.9333H63.7778C63.3333 30.9333 62.8889 31.1556 62.4444 31.1556C62 31.1556 61.7778 31.3778 61.3333 31.6C60.8889 31.8222 60.6667 31.8222 60.2222 32.0445V30.9333H22.6667L21.5556 33.8222L20.4444 30.9333H11.5556V34.0445L10.2222 30.9333H3.11111L0 38.4889V48.4889H5.11111L6 46.0445H7.77778L8.66667 48.4889H47.7778V46.2667L49.3333 48.4889H60.2222V47.1556C60.4444 47.3778 60.8889 47.3778 61.1111 47.6C61.3333 47.8222 61.7778 47.8222 62 48.0445C62.4444 48.2667 62.8889 48.2667 63.3333 48.2667H71.3333L72.2222 45.8222H74L74.8889 48.2667H85.7778V46.0445L87.5556 48.4889ZM100 70.6003V54.2667H38.6667L37.1111 56.4889L35.5556 54.2667H17.7778V71.8222H35.5556L37.1111 69.6L38.6667 71.8222H49.7778V68.0445H49.3333C50.8889 68.0445 52.2222 67.8222 53.3333 67.3778V72.0445H61.3333V69.8222L62.8889 72.0445H96C97.3333 71.6 98.8889 71.2669 100 70.6003Z" fill="white"></path><path d="M96 66.4889H90V68.9334H95.7778C98.2222 68.9334 99.7778 67.3778 99.7778 65.1556C99.7778 62.9334 98.4444 61.8223 96.2222 61.8223H93.5555C92.8889 61.8223 92.4444 61.3778 92.4444 60.7112C92.4444 60.0445 92.8889 59.6 93.5555 59.6H98.6667L99.7778 57.1556H93.7778C91.3333 57.1556 89.7778 58.7112 89.7778 60.7112C89.7778 62.9334 91.1111 64.0445 93.3333 64.0445H96C96.6667 64.0445 97.1111 64.4889 97.1111 65.1556C97.3333 66.0445 96.8889 66.4889 96 66.4889V66.4889ZM85.1111 66.4889H79.1111V68.9334H84.8889C87.3333 68.9334 88.8889 67.3778 88.8889 65.1556C88.8889 62.9334 87.5556 61.8223 85.3333 61.8223H82.6667C82 61.8223 81.5556 61.3778 81.5556 60.7112C81.5556 60.0445 82 59.6 82.6667 59.6H87.7778L88.8889 57.1556H82.8889C80.4444 57.1556 78.8889 58.7112 78.8889 60.7112C78.8889 62.9334 80.2222 64.0445 82.4444 64.0445H85.1111C85.7778 64.0445 86.2222 64.4889 86.2222 65.1556C86.4444 66.0445 85.7778 66.4889 85.1111 66.4889V66.4889ZM77.3333 59.3778V56.9334H68V68.7112H77.3333V66.2667H70.6667V63.8223H77.1111V61.3778H70.6667V59.1556H77.3333V59.3778V59.3778ZM62.2222 59.3778C63.3333 59.3778 63.7778 60.0445 63.7778 60.7112C63.7778 61.3778 63.3333 62.0445 62.2222 62.0445H58.8889V59.1556L62.2222 59.3778V59.3778ZM58.8889 64.4889H60.2222L63.7778 68.7112H67.1111L63.1111 64.2667C65.1111 63.8223 66.2222 62.4889 66.2222 60.7112C66.2222 58.4889 64.6667 56.9334 62.2222 56.9334H56V68.7112H58.6667L58.8889 64.4889ZM51.7778 60.9334C51.7778 61.8223 51.3333 62.4889 50.2222 62.4889H46.6667V59.3778H50C51.1111 59.3778 51.7778 60.0445 51.7778 60.9334V60.9334ZM44 56.9334V68.7112H46.6667V64.7112H50.2222C52.6667 64.7112 54.4444 63.1556 54.4444 60.7112C54.4444 58.4889 52.8889 56.7112 50.4444 56.7112L44 56.9334V56.9334ZM40 68.7112H43.3333L38.6667 62.7112L43.3333 56.9334H40L37.1111 60.7112L34.2222 56.9334H30.8889L35.5556 62.7112L30.8889 68.4889H34.2222L37.1111 64.7112L40 68.7112V68.7112ZM30 59.3778V56.9334H20.6667V68.7112H30V66.2667H23.3333V63.8223H29.7778V61.3778H23.3333V59.1556H30V59.3778V59.3778ZM84 38.4889L88.6667 45.6H92V33.8223H89.3333V41.6L88.6667 40.4889L84.4444 33.8223H80.8889V45.6H83.5555V37.6L84 38.4889V38.4889ZM72.4444 38.2667L73.3333 35.8223L74.2222 38.2667L75.3333 40.9334H71.3333L72.4444 38.2667V38.2667ZM77.1111 45.6H80L74.8889 33.8223H71.3333L66.2222 45.6H69.1111L70.2222 43.1556H76L77.1111 45.6V45.6ZM64.6667 45.6L65.7778 43.1556H65.1111C63.1111 43.1556 62 41.8223 62 39.8223V39.6C62 37.6 63.1111 36.2667 65.1111 36.2667H68V33.8223H64.8889C61.3333 33.8223 59.3333 36.2667 59.3333 39.6V39.8223C59.3333 43.3778 61.3333 45.6 64.6667 45.6ZM54.6667 45.6H57.3333V34.0445H54.6667V45.6ZM48.8889 36.2667C50 36.2667 50.4444 36.9334 50.4444 37.6C50.4444 38.2667 50 38.9334 48.8889 38.9334H45.5556V36.0445L48.8889 36.2667V36.2667ZM45.5556 41.3778H46.8889L50.4444 45.6H53.7778L49.7778 41.1556C51.7778 40.7112 52.8889 39.3778 52.8889 37.6C52.8889 35.3778 51.3333 33.8223 48.8889 33.8223H42.6667V45.6H45.3333L45.5556 41.3778ZM40.6667 36.2667V33.8223H31.3333V45.6H40.6667V43.1556H34V40.7112H40.4444V38.2667H34V36.0445H40.6667V36.2667V36.2667ZM20.4444 45.6H22.8889L26.2222 36.0445V45.6H28.8889V33.8223H24.4444L21.7778 41.8223L19.1111 33.8223H14.6667V45.6H17.3333V36.0445L20.4444 45.6ZM6 38.2667L6.88889 35.8223L7.77778 38.2667L8.88889 40.9334H4.88889L6 38.2667V38.2667ZM10.6667 45.6H13.5556L8.44444 33.8223H5.11111L0 45.6H2.88889L4 43.1556H9.77778L10.6667 45.6Z" fill="#006FCF"></path></g><defs><clipPath id="clip0_931_16639"><rect width="100" height="100" fill="white"></rect></clipPath></defs></svg> 