<?xml version="1.0" encoding="UTF-8"?> <svg xmlns="http://www.w3.org/2000/svg" width="233" height="100" viewBox="0 0 233 100" fill="none"><path d="M0.96582 89.0145L216.714 88.992C225.177 88.9904 232.034 82.1298 232.034 73.6686V10.9642H0.96582V89.0145Z" fill="#00609C"></path><path d="M0 89.9803V10H233V73.6686C233 82.6489 225.694 89.9562 216.714 89.9578L0 89.9803ZM1.93169 11.9301V88.0502L216.716 88.0277C224.63 88.0261 231.07 81.585 231.07 73.6686V11.9301H1.93169Z" fill="white"></path><path d="M123.443 54.2778L118.709 39.3289L114.072 54.2778H123.443ZM123.188 34.3952L133.883 65.9997H127.16L125.021 59.4509H112.441L110.251 65.9997H103.527L113.405 36.809C113.894 35.3659 115.247 34.3952 116.771 34.3952H123.188Z" fill="white"></path><path d="M153.706 57.9805C153.706 60.3043 152.483 61.0644 149.579 61.0644H143.008V52.4297H150.138C152.687 52.4297 153.704 53.4726 153.704 55.6084V57.9805H153.706ZM143.009 39.3305H149.172C151.517 39.3305 152.536 40.1372 152.536 41.8938V44.6917C152.536 46.543 151.618 47.6342 149.121 47.6342H143.009V39.3305V39.3305ZM155.181 49.5337C157.78 48.4908 158.951 47.0187 158.951 44.4088V41.1352C158.951 36.8637 156.353 34.3952 149.936 34.3952H136.592V65.9997H150.855C157.016 65.9997 160.125 63.2002 160.125 58.7406V55.3706C160.123 52.2866 158.291 50.1492 155.181 49.5337Z" fill="white"></path><path d="M91.842 38.8436H101.063V36.5519C101.063 34.8211 99.6604 33.4197 97.9312 33.4197H91.842C83.601 33.4985 80.0607 36.8508 80.0607 42.572V56.8073C80.0607 62.5301 83.601 65.8808 91.842 65.9596V65.982H100.713V63.6839C100.713 61.9564 99.3133 60.5582 97.5873 60.5582H91.842V60.5357C87.8196 60.4248 86.4777 58.9978 86.4777 55.7643V43.6166C86.4777 40.3815 87.8196 38.9561 91.842 38.8436Z" fill="white"></path><path d="M200.589 60.7334V39.3531V33.9276H197.725C195.763 33.9276 194.172 35.5186 194.172 37.4808V39.3531V66.0014H214.543V60.7334H200.589V60.7334Z" fill="white"></path><path d="M181.458 54.2778L176.724 39.3289L172.088 54.2778H181.458ZM181.205 34.3952L191.9 65.9997H185.177L183.038 59.4509H170.458L168.266 65.9997H161.544L171.12 37.6993C171.789 35.7243 173.643 34.3936 175.728 34.3936H181.205V34.3952Z" fill="white"></path><path d="M45.1874 24.6355L68.6264 47.6535C69.9345 48.9375 69.9345 51.046 68.6264 52.3316L45.1954 75.3448L45.1986 62.4786L56.2022 51.6197C57.1102 50.7229 57.1102 49.2589 56.2038 48.3638L45.1874 37.4679V24.6355V24.6355Z" fill="white"></path><path d="M40.8627 24.6355L17.4253 47.6535C16.1172 48.9375 16.1172 51.046 17.4253 52.3316L40.8547 75.3448L40.8515 62.4786L29.8495 51.6197C28.9415 50.7229 28.9415 49.2589 29.8479 48.3638L40.8643 37.4679V24.6355H40.8627Z" fill="white"></path></svg> 