<?xml version="1.0" encoding="UTF-8"?> <svg xmlns="http://www.w3.org/2000/svg" width="146" height="100" viewBox="0 0 146 100" fill="none"><g clip-path="url(#clip0_929_16294)"><path d="M92.4962 14.621H53.1212V85.379H92.4962V14.621Z" fill="#FF5F00"></path><path d="M55.6214 50C55.6151 43.1855 57.1593 36.4589 60.1371 30.3294C63.1148 24.1999 67.4481 18.8283 72.8087 14.621C66.1703 9.40306 58.1977 6.1581 49.8023 5.25701C41.4068 4.35592 32.9272 5.83503 25.3327 9.52535C17.7381 13.2157 11.335 18.9683 6.85532 26.1256C2.3756 33.283 0 41.5563 0 50C0 58.4437 2.3756 66.717 6.85532 73.8744C11.335 81.0317 17.7381 86.7843 25.3327 90.4747C32.9272 94.165 41.4068 95.6441 49.8023 94.743C58.1977 93.8419 66.1703 90.5969 72.8087 85.379C67.4481 81.1717 63.1149 75.8 60.1372 69.6706C57.1594 63.5411 55.6152 56.8145 55.6214 50V50Z" fill="#EB001B"></path><path d="M145.615 50C145.616 58.4435 143.24 66.7168 138.761 73.8742C134.281 81.0316 127.878 86.7842 120.284 90.4745C112.69 94.1649 104.21 95.6441 95.8149 94.743C87.4195 93.8419 79.4471 90.5969 72.8088 85.379C78.1648 81.1675 82.4946 75.7949 85.4719 69.6664C88.4491 63.5379 89.9961 56.8134 89.9961 50C89.9961 43.1866 88.4491 36.4621 85.4719 30.3336C82.4946 24.205 78.1648 18.8325 72.8088 14.621C79.4471 9.40304 87.4195 6.15808 95.8149 5.257C104.21 4.35592 112.69 5.83509 120.284 9.52545C127.878 13.2158 134.281 18.9684 138.761 26.1258C143.24 33.2832 145.616 41.5564 145.615 50V50Z" fill="#F79E1B"></path><path d="M141.322 77.8846V76.4359H141.906V76.1408H140.419V76.4359H141.003V77.8846H141.322ZM144.21 77.8846V76.1379H143.754L143.23 77.3393L142.705 76.1379H142.249V77.8846H142.571V76.5671L143.063 77.703H143.397L143.888 76.5642V77.8846H144.21Z" fill="#F79E1B"></path></g><defs><clipPath id="clip0_929_16294"><rect width="145.62" height="100" fill="white"></rect></clipPath></defs></svg> 