<?xml version="1.0" encoding="UTF-8"?> <svg xmlns="http://www.w3.org/2000/svg" width="258" height="100" viewBox="0 0 258 100" fill="none"><path d="M36.5226 20H29.1619C28.9329 20.0013 28.7138 20.0931 28.5524 20.2554C28.3909 20.4177 28.3003 20.6373 28.3003 20.8663L28.4689 48.4642C28.4693 48.5024 28.4571 48.5398 28.4341 48.5704C28.411 48.6009 28.3785 48.623 28.3416 48.6332C28.3047 48.6434 28.2655 48.641 28.2301 48.6265C28.1946 48.612 28.165 48.5862 28.1458 48.5531L10.2029 20.6883C10.0722 20.4793 9.89074 20.3066 9.67548 20.1862C9.46022 20.0659 9.21808 20.0019 8.97148 20H0.861607C0.747454 20.0006 0.634546 20.0238 0.529376 20.0682C0.424206 20.1126 0.328847 20.1773 0.248783 20.2587C0.168718 20.3401 0.105526 20.4365 0.0628398 20.5423C0.0201536 20.6482 -0.00118499 20.7615 5.07597e-05 20.8756V63.827C4.74152e-05 64.056 0.0906686 64.2756 0.252109 64.4379C0.413549 64.6002 0.632679 64.692 0.861607 64.6933H8.24103C8.46996 64.692 8.68909 64.6002 8.85053 64.4379C9.01197 64.2756 9.10259 64.056 9.10258 63.827V36.5007C9.09817 36.4618 9.10709 36.4225 9.12788 36.3893C9.14868 36.356 9.18012 36.3309 9.21707 36.3178C9.25402 36.3048 9.29431 36.3046 9.33134 36.3174C9.36838 36.3303 9.39998 36.3552 9.42099 36.3883L27.214 64.0143C27.3469 64.2215 27.5298 64.3918 27.7458 64.5096C27.9618 64.6275 28.2041 64.689 28.4502 64.6886H36.5226C36.7515 64.6873 36.9706 64.5955 37.1321 64.4332C37.2935 64.2709 37.3841 64.0513 37.3841 63.8223V20.8756C37.3866 20.7611 37.3662 20.6473 37.3239 20.5409C37.2817 20.4344 37.2185 20.3375 37.1382 20.2559C37.0579 20.1743 36.962 20.1096 36.8563 20.0656C36.7506 20.0217 36.6371 19.9994 36.5226 20V20Z" fill="#FE5000"></path><path d="M160.447 37.2077C159.229 35.7909 157.706 34.6678 155.993 33.9227C154.279 33.1775 152.42 32.8294 150.553 32.9046C149.629 32.9158 148.711 33.0513 147.823 33.3073C146.744 33.6806 145.752 34.2684 144.906 35.0351C144.881 35.0587 144.849 35.0744 144.815 35.0805C144.781 35.0866 144.747 35.0827 144.715 35.0693C144.683 35.0559 144.656 35.0336 144.637 35.0051C144.617 34.9766 144.607 34.9431 144.606 34.9087V34.3562C144.606 34.1272 144.515 33.9076 144.354 33.7453C144.193 33.583 143.973 33.4912 143.745 33.4899H136.459C136.23 33.4912 136.011 33.583 135.849 33.7453C135.688 33.9076 135.597 34.1272 135.597 34.3562V63.827C135.597 64.0559 135.688 64.2756 135.849 64.4379C136.011 64.6002 136.23 64.692 136.459 64.6933H143.745C143.973 64.692 144.193 64.6002 144.354 64.4379C144.515 64.2756 144.606 64.0559 144.606 63.827C144.606 63.827 144.639 45.8654 144.639 45.6828C144.65 45.0604 144.789 44.4469 145.047 43.8802C145.304 43.3135 145.675 42.8057 146.137 42.388C146.599 41.9702 147.141 41.6516 147.73 41.4516C148.32 41.2516 148.944 41.1746 149.565 41.2252C150.205 41.2 150.844 41.3042 151.444 41.5315C152.043 41.7588 152.591 42.1046 153.054 42.5482C153.516 42.9918 153.885 43.5241 154.138 44.1134C154.39 44.7026 154.521 45.3367 154.523 45.9778C154.523 45.9778 154.523 63.8223 154.523 63.8223C154.523 64.0513 154.614 64.2709 154.775 64.4332C154.937 64.5955 155.156 64.6873 155.385 64.6886H162.666C162.895 64.6873 163.114 64.5955 163.275 64.4332C163.437 64.2709 163.528 64.0513 163.528 63.8223V48.5391C163.864 44.5173 162.773 40.5055 160.447 37.2077V37.2077Z" fill="#FE5000"></path><path d="M129.847 33.4947H122.576C122.345 33.4947 122.123 33.5864 121.96 33.7498C121.796 33.9131 121.705 34.1346 121.705 34.3656V34.8994C121.704 34.9321 121.694 34.964 121.676 34.9917C121.659 35.0193 121.634 35.0418 121.605 35.0566C121.576 35.0714 121.543 35.0782 121.51 35.076C121.478 35.0739 121.446 35.063 121.419 35.0445C119.462 33.6368 117.116 32.8712 114.705 32.8532C112.587 32.858 110.492 33.282 108.539 34.1006C106.586 34.9192 104.815 36.1163 103.327 37.6228C101.839 39.1293 100.665 40.9155 99.8704 42.8783C99.0763 44.841 98.6786 46.9416 98.7002 49.0589C98.6328 53.0971 100.108 57.0089 102.825 59.9969C104.295 61.7025 106.12 63.0646 108.174 63.987C110.227 64.9094 112.458 65.3695 114.709 65.3348C117.098 65.2857 119.427 64.5811 121.442 63.298C121.469 63.2807 121.5 63.2711 121.532 63.2704C121.564 63.2696 121.596 63.2777 121.623 63.2936C121.651 63.3096 121.673 63.3329 121.689 63.3609C121.704 63.389 121.711 63.4206 121.709 63.4525V63.8224C121.709 64.0534 121.801 64.2749 121.964 64.4382C122.128 64.6016 122.349 64.6933 122.58 64.6933H129.847C130.078 64.6933 130.3 64.6016 130.463 64.4382C130.627 64.2749 130.718 64.0534 130.718 63.8224V34.3656C130.718 34.1346 130.627 33.9131 130.463 33.7498C130.3 33.5864 130.078 33.4947 129.847 33.4947V33.4947ZM114.836 56.9955C113.918 57.0157 113.005 56.845 112.157 56.4944C111.308 56.1438 110.541 55.6209 109.905 54.9587C109.178 54.1677 108.618 53.2386 108.258 52.2267C107.897 51.2147 107.744 50.1406 107.807 49.0682C107.721 47.1973 108.271 45.3523 109.367 43.8333C109.98 42.9948 110.787 42.3167 111.719 41.857C112.651 41.3972 113.68 41.1692 114.719 41.1925C115.649 41.1493 116.578 41.3049 117.443 41.6488C118.309 41.9928 119.091 42.5172 119.738 43.1872C121.178 44.7829 121.925 46.8845 121.817 49.0308C121.897 50.9201 121.36 52.7841 120.286 54.3406C119.665 55.1963 118.843 55.8861 117.893 56.3491C116.942 56.8121 115.892 57.0341 114.836 56.9955Z" fill="#FE5000"></path><path d="M72.9752 33.4947H65.7082C65.4772 33.4947 65.2557 33.5864 65.0924 33.7498C64.929 33.9131 64.8373 34.1346 64.8373 34.3656V34.8994C64.8363 34.9321 64.8265 34.964 64.8089 34.9917C64.7914 35.0193 64.7667 35.0418 64.7375 35.0566C64.7083 35.0714 64.6756 35.0782 64.6429 35.076C64.6102 35.0739 64.5787 35.063 64.5516 35.0445C62.5942 33.6368 60.2481 32.8712 57.8371 32.8532C55.7198 32.858 53.6243 33.282 51.6716 34.1006C49.7189 34.9192 47.9476 36.1163 46.4598 37.6228C44.972 39.1293 43.7971 40.9155 43.003 42.8783C42.2089 44.841 41.8111 46.9416 41.8328 49.0589C41.7654 53.0971 43.2407 57.0089 45.958 59.9969C47.4271 61.7025 49.253 63.0646 51.3065 63.987C53.3599 64.9094 55.5909 65.3695 57.8418 65.3348C60.2305 65.286 62.5598 64.5813 64.5751 63.298C64.6019 63.2807 64.6329 63.2711 64.6648 63.2704C64.6967 63.2696 64.7281 63.2777 64.7557 63.2936C64.7833 63.3096 64.806 63.3329 64.8212 63.3609C64.8364 63.389 64.8436 63.4206 64.842 63.4525V63.8224C64.842 64.0534 64.9337 64.2749 65.097 64.4382C65.2604 64.6016 65.4819 64.6933 65.7129 64.6933H72.9799C73.2109 64.6933 73.4324 64.6016 73.5958 64.4382C73.7591 64.2749 73.8508 64.0534 73.8508 63.8224V34.3656C73.8515 34.2506 73.8292 34.1367 73.7854 34.0305C73.7415 33.9242 73.677 33.8278 73.5955 33.7467C73.514 33.6656 73.4172 33.6016 73.3107 33.5583C73.2042 33.5151 73.0902 33.4934 72.9752 33.4947V33.4947ZM57.9916 56.9955C57.0736 57.0157 56.1614 56.845 55.3127 56.4944C54.4639 56.1438 53.6973 55.6209 53.0611 54.9587C52.3342 54.1677 51.7739 53.2386 51.4135 52.2267C51.0531 51.2147 50.9 50.1406 50.9634 49.0682C50.8774 47.1973 51.427 45.3523 52.5226 43.8333C53.1367 42.9956 53.9439 42.3185 54.8756 41.8595C55.8074 41.4006 56.8362 41.1734 57.8746 41.1972C58.8049 41.154 59.7338 41.3096 60.5993 41.6535C61.4648 41.9975 62.2471 42.5219 62.8941 43.1919C64.3335 44.7876 65.0812 46.8891 64.9731 49.0355C65.0533 50.9248 64.5158 52.7888 63.4419 54.3453C62.8184 55.2026 61.9932 55.8929 61.0393 56.3552C60.0853 56.8174 59.0321 57.0374 57.9729 56.9955H57.9916Z" fill="#FE5000"></path><path d="M212.411 33.4947H205.125C204.894 33.4947 204.673 33.5864 204.51 33.7498C204.346 33.9131 204.255 34.1346 204.255 34.3656V34.8994C204.254 34.9321 204.244 34.964 204.226 34.9917C204.209 35.0193 204.184 35.0418 204.155 35.0566C204.126 35.0714 204.093 35.0782 204.06 35.076C204.027 35.0739 203.996 35.063 203.969 35.0445C202.011 33.6368 199.665 32.8712 197.254 32.8532C195.137 32.8574 193.041 33.2809 191.087 34.0992C189.134 34.9176 187.362 36.1146 185.874 37.6211C184.386 39.1277 183.21 40.9141 182.416 42.8772C181.622 44.8403 181.224 46.9412 181.245 49.0589C181.178 53.0971 182.653 57.0089 185.371 59.9969C186.84 61.7025 188.666 63.0646 190.719 63.987C192.773 64.9094 195.004 65.3695 197.254 65.3348C199.643 65.286 201.972 64.5813 203.988 63.298C204.014 63.2807 204.046 63.2711 204.077 63.2704C204.109 63.2696 204.141 63.2777 204.168 63.2936C204.196 63.3096 204.219 63.3329 204.234 63.3609C204.249 63.389 204.256 63.4206 204.255 63.4525V63.8224C204.255 64.0534 204.346 64.2749 204.51 64.4382C204.673 64.6016 204.894 64.6933 205.125 64.6933H212.393C212.624 64.6933 212.845 64.6016 213.008 64.4382C213.172 64.2749 213.263 64.0534 213.263 63.8224V34.3656C213.263 34.1378 213.174 33.9191 213.015 33.7563C212.856 33.5935 212.639 33.4996 212.411 33.4947ZM197.4 56.9955C196.481 57.0157 195.569 56.845 194.721 56.4944C193.872 56.1438 193.105 55.6209 192.469 54.9587C191.742 54.1677 191.182 53.2386 190.821 52.2267C190.461 51.2147 190.308 50.1406 190.371 49.0682C190.285 47.1973 190.835 45.3523 191.931 43.8333C192.545 42.9956 193.352 42.3185 194.284 41.8595C195.215 41.4006 196.244 41.1734 197.283 41.1972C198.215 41.152 199.147 41.3065 200.015 41.6506C200.883 41.9946 201.668 42.5201 202.316 43.1919C203.756 44.7876 204.503 46.8891 204.395 49.0355C204.475 50.9248 203.938 52.7888 202.864 54.3453C202.241 55.2019 201.416 55.8918 200.463 56.354C199.51 56.8163 198.458 57.0366 197.4 56.9955Z" fill="#FE5000"></path><path d="M93.9046 33.6164C92.2396 33.6699 90.6306 34.2302 89.2925 35.2224C89.2662 35.2424 89.2348 35.2547 89.2019 35.2579C89.169 35.2611 89.1359 35.2551 89.1062 35.2405C89.0766 35.2259 89.0516 35.2033 89.034 35.1754C89.0165 35.1474 89.0071 35.115 89.0068 35.082V34.3515C89.0069 34.1226 88.9162 33.903 88.7548 33.7407C88.5934 33.5783 88.3742 33.4865 88.1453 33.4853H80.8689C80.64 33.4865 80.4208 33.5783 80.2594 33.7407C80.098 33.903 80.0073 34.1226 80.0073 34.3515V63.8224C80.0073 64.0513 80.098 64.2709 80.2594 64.4333C80.4208 64.5956 80.64 64.6874 80.8689 64.6886H88.1453C88.3742 64.6874 88.5934 64.5956 88.7548 64.4333C88.9162 64.2709 89.0069 64.0513 89.0068 63.8224V49.6301C88.8257 47.4919 89.2066 45.3435 90.1119 43.3979C90.5823 42.8538 91.1796 42.4341 91.851 42.176C92.5224 41.9179 93.247 41.8293 93.9608 41.9182C94.8224 41.9157 95.6836 41.9579 96.5408 42.0447C96.6587 42.0473 96.7759 42.0258 96.8852 41.9813C96.9944 41.9368 97.0934 41.8704 97.1759 41.7861C97.2585 41.7018 97.3228 41.6015 97.365 41.4913C97.4071 41.3812 97.4262 41.2635 97.4211 41.1457V34.6559C97.4212 34.4435 97.3428 34.2386 97.2011 34.0805C97.0594 33.9223 96.8643 33.8221 96.6532 33.799C95.741 33.6879 94.8235 33.6269 93.9046 33.6164V33.6164Z" fill="#FE5000"></path><path d="M177.241 21.6059C176.742 21.1073 176.149 20.7128 175.497 20.4451C174.844 20.1775 174.145 20.0421 173.439 20.0468C171.99 20.0271 170.59 20.5748 169.539 21.5731C169.022 22.058 168.611 22.6459 168.333 23.299C168.056 23.9521 167.918 24.656 167.929 25.3654C167.913 26.0834 168.048 26.7967 168.325 27.4595C168.601 28.1223 169.014 28.7199 169.535 29.2139C170.035 29.7228 170.634 30.1243 171.295 30.394C171.956 30.6636 172.665 30.7958 173.379 30.7824C174.096 30.7913 174.808 30.6572 175.472 30.3879C176.137 30.1186 176.742 29.7195 177.251 29.2139C177.757 28.7182 178.157 28.1247 178.426 27.4696C178.696 26.8144 178.83 26.1113 178.819 25.4029C178.822 24.7024 178.686 24.0082 178.42 23.3605C178.153 22.7128 177.76 22.1244 177.265 21.6293L177.241 21.6059Z" fill="#FE5000"></path><path d="M177.003 33.5087H169.722C169.493 33.51 169.274 33.6018 169.113 33.7641C168.951 33.9264 168.86 34.146 168.86 34.375V65.3301C168.844 66.1509 168.66 66.9596 168.321 67.7072C167.981 68.4547 167.494 69.1255 166.887 69.6786C166.28 70.2318 165.568 70.6558 164.792 70.9249C164.016 71.194 163.194 71.3026 162.375 71.244C162.157 71.2617 161.954 71.3614 161.806 71.523C161.659 71.6845 161.577 71.896 161.579 72.1149V79.1619C161.587 79.3859 161.68 79.5984 161.841 79.7547C162.002 79.911 162.217 79.9989 162.441 80H162.497C163.963 79.9251 177.13 78.9231 177.837 66.1964C177.857 66.1248 177.868 66.0508 177.869 65.9763V34.3656C177.867 34.1375 177.775 33.9196 177.612 33.7591C177.45 33.5987 177.231 33.5087 177.003 33.5087V33.5087Z" fill="#FE5000"></path><path d="M229.937 20.7726C229.787 20.5409 229.583 20.3493 229.342 20.2146C229.101 20.08 228.831 20.0063 228.556 20H220.127C219.973 20.0001 219.821 20.0417 219.688 20.1204C219.556 20.1992 219.446 20.3122 219.372 20.4477C219.298 20.5832 219.261 20.7361 219.267 20.8904C219.272 21.0448 219.318 21.1949 219.402 21.3251L232.868 42.1476C232.904 42.2042 232.924 42.27 232.924 42.3373C232.924 42.4045 232.904 42.4703 232.868 42.5269L219.402 63.3541C219.319 63.4836 219.272 63.6329 219.267 63.7865C219.261 63.94 219.297 64.0923 219.37 64.2274C219.443 64.3626 219.551 64.4758 219.682 64.5552C219.814 64.6347 219.964 64.6775 220.118 64.6792H228.584C228.848 64.6791 229.109 64.6126 229.341 64.4858C229.573 64.359 229.77 64.176 229.913 63.9534L243.062 43.5149C243.283 43.1648 243.401 42.7588 243.401 42.3443C243.401 41.9298 243.283 41.5238 243.062 41.1737L229.937 20.7726Z" fill="#FE5000"></path><path d="M245.769 45.3644C245.737 45.3151 245.693 45.2746 245.642 45.2465C245.59 45.2185 245.532 45.2038 245.474 45.2038C245.415 45.2038 245.357 45.2185 245.306 45.2465C245.254 45.2746 245.211 45.3151 245.179 45.3644L240.782 52.1913C240.56 52.5412 240.441 52.9473 240.441 53.3619C240.441 53.7765 240.56 54.1826 240.782 54.5325L246.747 63.7942C246.919 64.0628 247.156 64.2838 247.436 64.4368C247.716 64.5898 248.03 64.6699 248.349 64.6698H256.636C256.791 64.6689 256.942 64.6267 257.074 64.5476C257.206 64.4685 257.315 64.3554 257.388 64.2201C257.462 64.0848 257.498 63.9322 257.492 63.7782C257.487 63.6243 257.44 63.4746 257.358 63.3447L245.769 45.3644Z" fill="#50007F"></path><path d="M246.757 20.8804L240.791 30.1468C240.569 30.4967 240.451 30.9028 240.451 31.3174C240.451 31.732 240.569 32.1381 240.791 32.488L245.188 39.3243C245.219 39.3726 245.261 39.4124 245.312 39.4399C245.362 39.4675 245.419 39.4819 245.476 39.4819C245.533 39.4819 245.59 39.4675 245.64 39.4399C245.69 39.4124 245.733 39.3726 245.764 39.3243L257.376 21.3065C257.457 21.1789 257.503 21.0321 257.508 20.8811C257.513 20.7301 257.478 20.5805 257.405 20.4477C257.333 20.315 257.227 20.2039 257.098 20.126C256.968 20.0482 256.82 20.0063 256.669 20.0048H248.358C248.039 20.006 247.726 20.0867 247.446 20.2396C247.167 20.3925 246.93 20.6127 246.757 20.8804V20.8804Z" fill="#50007F"></path></svg> 