<?xml version="1.0" encoding="UTF-8"?> <svg xmlns="http://www.w3.org/2000/svg" width="100" height="100" viewBox="0 0 100 100" fill="none"><g clip-path="url(#clip0_929_16296)"><path d="M4 0H0V4H4V0Z" fill="black"></path><path d="M4 3.99994H0V7.99994H4V3.99994Z" fill="black"></path><path d="M4 8H0V12H4V8Z" fill="black"></path><path d="M4 11.9999H0V15.9999H4V11.9999Z" fill="black"></path><path d="M4 16H0V20H4V16Z" fill="black"></path><path d="M4 19.9999H0V23.9999H4V19.9999Z" fill="black"></path><path d="M4 24H0V28H4V24Z" fill="black"></path><path d="M4 32H0V36H4V32Z" fill="black"></path><path d="M4 36H0V40H4V36Z" fill="black"></path><path d="M4 44H0V48H4V44Z" fill="black"></path><path d="M4 48H0V52H4V48Z" fill="black"></path><path d="M4 72H0V76H4V72Z" fill="black"></path><path d="M4 76H0V80H4V76Z" fill="black"></path><path d="M4 80H0V84H4V80Z" fill="black"></path><path d="M4 84H0V88H4V84Z" fill="black"></path><path d="M4 88H0V92H4V88Z" fill="black"></path><path d="M4 92H0V96H4V92Z" fill="black"></path><path d="M4 96H0V100H4V96Z" fill="black"></path><path d="M8 0H4V4H8V0Z" fill="black"></path><path d="M8 24H4V28H8V24Z" fill="black"></path><path d="M8 32H4V36H8V32Z" fill="black"></path><path d="M8 52H4V56H8V52Z" fill="black"></path><path d="M8 60H4V64H8V60Z" fill="black"></path><path d="M8 64H4V68H8V64Z" fill="black"></path><path d="M8 72H4V76H8V72Z" fill="black"></path><path d="M8 96H4V100H8V96Z" fill="black"></path><path d="M11.9999 0H7.99988V4H11.9999V0Z" fill="black"></path><path d="M11.9999 8H7.99988V12H11.9999V8Z" fill="black"></path><path d="M11.9999 11.9999H7.99988V15.9999H11.9999V11.9999Z" fill="black"></path><path d="M11.9999 16H7.99988V20H11.9999V16Z" fill="black"></path><path d="M11.9999 24H7.99988V28H11.9999V24Z" fill="black"></path><path d="M11.9999 44H7.99988V48H11.9999V44Z" fill="black"></path><path d="M11.9999 48H7.99988V52H11.9999V48Z" fill="black"></path><path d="M11.9999 60H7.99988V64H11.9999V60Z" fill="black"></path><path d="M11.9999 64H7.99988V68H11.9999V64Z" fill="black"></path><path d="M11.9999 72H7.99988V76H11.9999V72Z" fill="black"></path><path d="M11.9999 80H7.99988V84H11.9999V80Z" fill="black"></path><path d="M11.9999 84H7.99988V88H11.9999V84Z" fill="black"></path><path d="M11.9999 88H7.99988V92H11.9999V88Z" fill="black"></path><path d="M11.9999 96H7.99988V100H11.9999V96Z" fill="black"></path><path d="M16 0H12V4H16V0Z" fill="black"></path><path d="M16 8H12V12H16V8Z" fill="black"></path><path d="M16 11.9999H12V15.9999H16V11.9999Z" fill="black"></path><path d="M16 16H12V20H16V16Z" fill="black"></path><path d="M16 24H12V28H16V24Z" fill="black"></path><path d="M16 32H12V36H16V32Z" fill="black"></path><path d="M16 36H12V40H16V36Z" fill="black"></path><path d="M16 40H12V44H16V40Z" fill="black"></path><path d="M16 44H12V48H16V44Z" fill="black"></path><path d="M16 48H12V52H16V48Z" fill="black"></path><path d="M16 52H12V56H16V52Z" fill="black"></path><path d="M16 56H12V60H16V56Z" fill="black"></path><path d="M16 60H12V64H16V60Z" fill="black"></path><path d="M16 72H12V76H16V72Z" fill="black"></path><path d="M16 80H12V84H16V80Z" fill="black"></path><path d="M16 84H12V88H16V84Z" fill="black"></path><path d="M16 88H12V92H16V88Z" fill="black"></path><path d="M16 96H12V100H16V96Z" fill="black"></path><path d="M20 0H16V4H20V0Z" fill="black"></path><path d="M20 8H16V12H20V8Z" fill="black"></path><path d="M20 11.9999H16V15.9999H20V11.9999Z" fill="black"></path><path d="M20 16H16V20H20V16Z" fill="black"></path><path d="M20 24H16V28H20V24Z" fill="black"></path><path d="M20 32H16V36H20V32Z" fill="black"></path><path d="M20 36H16V40H20V36Z" fill="black"></path><path d="M20 44H16V48H20V44Z" fill="black"></path><path d="M20 52H16V56H20V52Z" fill="black"></path><path d="M20 64H16V68H20V64Z" fill="black"></path><path d="M20 72H16V76H20V72Z" fill="black"></path><path d="M20 80H16V84H20V80Z" fill="black"></path><path d="M20 84H16V88H20V84Z" fill="black"></path><path d="M20 88H16V92H20V88Z" fill="black"></path><path d="M20 96H16V100H20V96Z" fill="black"></path><path d="M24 0H20V4H24V0Z" fill="black"></path><path d="M24 24H20V28H24V24Z" fill="black"></path><path d="M24 36H20V40H24V36Z" fill="black"></path><path d="M24 48H20V52H24V48Z" fill="black"></path><path d="M24 72H20V76H24V72Z" fill="black"></path><path d="M24 96H20V100H24V96Z" fill="black"></path><path d="M27.9999 0H23.9999V4H27.9999V0Z" fill="black"></path><path d="M27.9999 3.99994H23.9999V7.99994H27.9999V3.99994Z" fill="black"></path><path d="M27.9999 8H23.9999V12H27.9999V8Z" fill="black"></path><path d="M27.9999 11.9999H23.9999V15.9999H27.9999V11.9999Z" fill="black"></path><path d="M27.9999 16H23.9999V20H27.9999V16Z" fill="black"></path><path d="M27.9999 19.9999H23.9999V23.9999H27.9999V19.9999Z" fill="black"></path><path d="M27.9999 24H23.9999V28H27.9999V24Z" fill="black"></path><path d="M27.9999 32H23.9999V36H27.9999V32Z" fill="black"></path><path d="M27.9999 40H23.9999V44H27.9999V40Z" fill="black"></path><path d="M27.9999 48H23.9999V52H27.9999V48Z" fill="black"></path><path d="M27.9999 56H23.9999V60H27.9999V56Z" fill="black"></path><path d="M27.9999 64H23.9999V68H27.9999V64Z" fill="black"></path><path d="M27.9999 72H23.9999V76H27.9999V72Z" fill="black"></path><path d="M27.9999 76H23.9999V80H27.9999V76Z" fill="black"></path><path d="M27.9999 80H23.9999V84H27.9999V80Z" fill="black"></path><path d="M27.9999 84H23.9999V88H27.9999V84Z" fill="black"></path><path d="M27.9999 88H23.9999V92H27.9999V88Z" fill="black"></path><path d="M27.9999 92H23.9999V96H27.9999V92Z" fill="black"></path><path d="M27.9999 96H23.9999V100H27.9999V96Z" fill="black"></path><path d="M32 44H28V48H32V44Z" fill="black"></path><path d="M32 48H28V52H32V48Z" fill="black"></path><path d="M32 52H28V56H32V52Z" fill="black"></path><path d="M32 60H28V64H32V60Z" fill="black"></path><path d="M32 64H28V68H32V64Z" fill="black"></path><path d="M36 0H32V4H36V0Z" fill="black"></path><path d="M36 24H32V28H36V24Z" fill="black"></path><path d="M36 27.9999H32V31.9999H36V27.9999Z" fill="black"></path><path d="M36 40H32V44H36V40Z" fill="black"></path><path d="M36 44H32V48H36V44Z" fill="black"></path><path d="M36 48H32V52H36V48Z" fill="black"></path><path d="M36 64H32V68H36V64Z" fill="black"></path><path d="M36 68H32V72H36V68Z" fill="black"></path><path d="M36 80H32V84H36V80Z" fill="black"></path><path d="M36 84H32V88H36V84Z" fill="black"></path><path d="M36 92H32V96H36V92Z" fill="black"></path><path d="M36 96H32V100H36V96Z" fill="black"></path><path d="M40 0H36V4H40V0Z" fill="black"></path><path d="M40 8H36V12H40V8Z" fill="black"></path><path d="M40 19.9999H36V23.9999H40V19.9999Z" fill="black"></path><path d="M40 27.9999H36V31.9999H40V27.9999Z" fill="black"></path><path d="M40 32H36V36H40V32Z" fill="black"></path><path d="M40 40H36V44H40V40Z" fill="black"></path><path d="M40 48H36V52H40V48Z" fill="black"></path><path d="M40 52H36V56H40V52Z" fill="black"></path><path d="M40 56H36V60H40V56Z" fill="black"></path><path d="M40 60H36V64H40V60Z" fill="black"></path><path d="M40 64H36V68H40V64Z" fill="black"></path><path d="M40 68H36V72H40V68Z" fill="black"></path><path d="M40 92H36V96H40V92Z" fill="black"></path><path d="M43.9999 0H39.9999V4H43.9999V0Z" fill="black"></path><path d="M43.9999 11.9999H39.9999V15.9999H43.9999V11.9999Z" fill="black"></path><path d="M43.9999 16H39.9999V20H43.9999V16Z" fill="black"></path><path d="M43.9999 24H39.9999V28H43.9999V24Z" fill="black"></path><path d="M43.9999 36H39.9999V40H43.9999V36Z" fill="black"></path><path d="M43.9999 48H39.9999V52H43.9999V48Z" fill="black"></path><path d="M43.9999 52H39.9999V56H43.9999V52Z" fill="black"></path><path d="M43.9999 64H39.9999V68H43.9999V64Z" fill="black"></path><path d="M43.9999 88H39.9999V92H43.9999V88Z" fill="black"></path><path d="M43.9999 92H39.9999V96H43.9999V92Z" fill="black"></path><path d="M48 0H44V4H48V0Z" fill="black"></path><path d="M48 3.99994H44V7.99994H48V3.99994Z" fill="black"></path><path d="M48 8H44V12H48V8Z" fill="black"></path><path d="M48 11.9999H44V15.9999H48V11.9999Z" fill="black"></path><path d="M48 16H44V20H48V16Z" fill="black"></path><path d="M48 19.9999H44V23.9999H48V19.9999Z" fill="black"></path><path d="M48 64H44V68H48V64Z" fill="black"></path><path d="M48 68H44V72H48V68Z" fill="black"></path><path d="M48 76H44V80H48V76Z" fill="black"></path><path d="M48 80H44V84H48V80Z" fill="black"></path><path d="M48 88H44V92H48V88Z" fill="black"></path><path d="M48 92H44V96H48V92Z" fill="black"></path><path d="M48 96H44V100H48V96Z" fill="black"></path><path d="M52 3.99994H48V7.99994H52V3.99994Z" fill="black"></path><path d="M52 16H48V20H52V16Z" fill="black"></path><path d="M52 24H48V28H52V24Z" fill="black"></path><path d="M52 27.9999H48V31.9999H52V27.9999Z" fill="black"></path><path d="M52 32H48V36H52V32Z" fill="black"></path><path d="M52 40H48V44H52V40Z" fill="black"></path><path d="M52 52H48V56H52V52Z" fill="black"></path><path d="M52 60H48V64H52V60Z" fill="black"></path><path d="M52 64H48V68H52V64Z" fill="black"></path><path d="M52 72H48V76H52V72Z" fill="black"></path><path d="M52 84H48V88H52V84Z" fill="black"></path><path d="M52 92H48V96H52V92Z" fill="black"></path><path d="M52 96H48V100H52V96Z" fill="black"></path><path d="M56 8H52V12H56V8Z" fill="black"></path><path d="M56 11.9999H52V15.9999H56V11.9999Z" fill="black"></path><path d="M56 16H52V20H56V16Z" fill="black"></path><path d="M56 27.9999H52V31.9999H56V27.9999Z" fill="black"></path><path d="M56 36H52V40H56V36Z" fill="black"></path><path d="M56 40H52V44H56V40Z" fill="black"></path><path d="M56 52H52V56H56V52Z" fill="black"></path><path d="M56 56H52V60H56V56Z" fill="black"></path><path d="M56 64H52V68H56V64Z" fill="black"></path><path d="M56 76H52V80H56V76Z" fill="black"></path><path d="M56 80H52V84H56V80Z" fill="black"></path><path d="M56 84H52V88H56V84Z" fill="black"></path><path d="M56 88H52V92H56V88Z" fill="black"></path><path d="M56 92H52V96H56V92Z" fill="black"></path><path d="M56 96H52V100H56V96Z" fill="black"></path><path d="M59.9999 0H55.9999V4H59.9999V0Z" fill="black"></path><path d="M59.9999 8H55.9999V12H59.9999V8Z" fill="black"></path><path d="M59.9999 16H55.9999V20H59.9999V16Z" fill="black"></path><path d="M59.9999 19.9999H55.9999V23.9999H59.9999V19.9999Z" fill="black"></path><path d="M59.9999 24H55.9999V28H59.9999V24Z" fill="black"></path><path d="M59.9999 36H55.9999V40H59.9999V36Z" fill="black"></path><path d="M59.9999 52H55.9999V56H59.9999V52Z" fill="black"></path><path d="M59.9999 68H55.9999V72H59.9999V68Z" fill="black"></path><path d="M59.9999 72H55.9999V76H59.9999V72Z" fill="black"></path><path d="M59.9999 76H55.9999V80H59.9999V76Z" fill="black"></path><path d="M59.9999 84H55.9999V88H59.9999V84Z" fill="black"></path><path d="M64 27.9999H60V31.9999H64V27.9999Z" fill="black"></path><path d="M64 36H60V40H64V36Z" fill="black"></path><path d="M64 40H60V44H64V40Z" fill="black"></path><path d="M64 44H60V48H64V44Z" fill="black"></path><path d="M64 48H60V52H64V48Z" fill="black"></path><path d="M64 52H60V56H64V52Z" fill="black"></path><path d="M64 56H60V60H64V56Z" fill="black"></path><path d="M64 60H60V64H64V60Z" fill="black"></path><path d="M64 64H60V68H64V64Z" fill="black"></path><path d="M64 68H60V72H64V68Z" fill="black"></path><path d="M64 76H60V80H64V76Z" fill="black"></path><path d="M64 80H60V84H64V80Z" fill="black"></path><path d="M64 88H60V92H64V88Z" fill="black"></path><path d="M64 92H60V96H64V92Z" fill="black"></path><path d="M68 3.99994H64V7.99994H68V3.99994Z" fill="black"></path><path d="M68 8H64V12H68V8Z" fill="black"></path><path d="M68 11.9999H64V15.9999H68V11.9999Z" fill="black"></path><path d="M68 16H64V20H68V16Z" fill="black"></path><path d="M68 19.9999H64V23.9999H68V19.9999Z" fill="black"></path><path d="M68 24H64V28H68V24Z" fill="black"></path><path d="M68 27.9999H64V31.9999H68V27.9999Z" fill="black"></path><path d="M68 32H64V36H68V32Z" fill="black"></path><path d="M68 36H64V40H68V36Z" fill="black"></path><path d="M68 40H64V44H68V40Z" fill="black"></path><path d="M68 44H64V48H68V44Z" fill="black"></path><path d="M68 52H64V56H68V52Z" fill="black"></path><path d="M68 56H64V60H68V56Z" fill="black"></path><path d="M68 64H64V68H68V64Z" fill="black"></path><path d="M68 68H64V72H68V68Z" fill="black"></path><path d="M68 72H64V76H68V72Z" fill="black"></path><path d="M68 76H64V80H68V76Z" fill="black"></path><path d="M68 80H64V84H68V80Z" fill="black"></path><path d="M68 84H64V88H68V84Z" fill="black"></path><path d="M68 96H64V100H68V96Z" fill="black"></path><path d="M72 36H68V40H72V36Z" fill="black"></path><path d="M72 52H68V56H72V52Z" fill="black"></path><path d="M72 56H68V60H72V56Z" fill="black"></path><path d="M72 60H68V64H72V60Z" fill="black"></path><path d="M72 64H68V68H72V64Z" fill="black"></path><path d="M72 80H68V84H72V80Z" fill="black"></path><path d="M72 88H68V92H72V88Z" fill="black"></path><path d="M72 96H68V100H72V96Z" fill="black"></path><path d="M76 0H72V4H76V0Z" fill="black"></path><path d="M76 3.99994H72V7.99994H76V3.99994Z" fill="black"></path><path d="M76 8H72V12H76V8Z" fill="black"></path><path d="M76 11.9999H72V15.9999H76V11.9999Z" fill="black"></path><path d="M76 16H72V20H76V16Z" fill="black"></path><path d="M76 19.9999H72V23.9999H76V19.9999Z" fill="black"></path><path d="M76 24H72V28H76V24Z" fill="black"></path><path d="M76 32H72V36H76V32Z" fill="black"></path><path d="M76 40H72V44H76V40Z" fill="black"></path><path d="M76 48H72V52H76V48Z" fill="black"></path><path d="M76 56H72V60H76V56Z" fill="black"></path><path d="M76 64H72V68H76V64Z" fill="black"></path><path d="M76 72H72V76H76V72Z" fill="black"></path><path d="M76 80H72V84H76V80Z" fill="black"></path><path d="M76 84H72V88H76V84Z" fill="black"></path><path d="M80 0H76V4H80V0Z" fill="black"></path><path d="M80 24H76V28H80V24Z" fill="black"></path><path d="M80 36H76V40H80V36Z" fill="black"></path><path d="M80 40H76V44H80V40Z" fill="black"></path><path d="M80 44H76V48H80V44Z" fill="black"></path><path d="M80 60H76V64H80V60Z" fill="black"></path><path d="M80 64H76V68H80V64Z" fill="black"></path><path d="M80 80H76V84H80V80Z" fill="black"></path><path d="M80 92H76V96H80V92Z" fill="black"></path><path d="M84 0H80V4H84V0Z" fill="black"></path><path d="M84 8H80V12H84V8Z" fill="black"></path><path d="M84 11.9999H80V15.9999H84V11.9999Z" fill="black"></path><path d="M84 16H80V20H84V16Z" fill="black"></path><path d="M84 24H80V28H84V24Z" fill="black"></path><path d="M84 36H80V40H84V36Z" fill="black"></path><path d="M84 52H80V56H84V52Z" fill="black"></path><path d="M84 56H80V60H84V56Z" fill="black"></path><path d="M84 64H80V68H84V64Z" fill="black"></path><path d="M84 68H80V72H84V68Z" fill="black"></path><path d="M84 72H80V76H84V72Z" fill="black"></path><path d="M84 76H80V80H84V76Z" fill="black"></path><path d="M84 80H80V84H84V80Z" fill="black"></path><path d="M84 88H80V92H84V88Z" fill="black"></path><path d="M84 92H80V96H84V92Z" fill="black"></path><path d="M88 0H84V4H88V0Z" fill="black"></path><path d="M88 8H84V12H88V8Z" fill="black"></path><path d="M88 11.9999H84V15.9999H88V11.9999Z" fill="black"></path><path d="M88 16H84V20H88V16Z" fill="black"></path><path d="M88 24H84V28H88V24Z" fill="black"></path><path d="M88 36H84V40H88V36Z" fill="black"></path><path d="M88 40H84V44H88V40Z" fill="black"></path><path d="M88 44H84V48H88V44Z" fill="black"></path><path d="M88 56H84V60H88V56Z" fill="black"></path><path d="M88 60H84V64H88V60Z" fill="black"></path><path d="M88 88H84V92H88V88Z" fill="black"></path><path d="M88 96H84V100H88V96Z" fill="black"></path><path d="M92 0H88V4H92V0Z" fill="black"></path><path d="M92 8H88V12H92V8Z" fill="black"></path><path d="M92 11.9999H88V15.9999H92V11.9999Z" fill="black"></path><path d="M92 16H88V20H92V16Z" fill="black"></path><path d="M92 24H88V28H92V24Z" fill="black"></path><path d="M92 36H88V40H92V36Z" fill="black"></path><path d="M92 44H88V48H92V44Z" fill="black"></path><path d="M92 56H88V60H92V56Z" fill="black"></path><path d="M92 60H88V64H92V60Z" fill="black"></path><path d="M92 64H88V68H92V64Z" fill="black"></path><path d="M92 68H88V72H92V68Z" fill="black"></path><path d="M92 88H88V92H92V88Z" fill="black"></path><path d="M92 92H88V96H92V92Z" fill="black"></path><path d="M96.0001 0H92.0001V4H96.0001V0Z" fill="black"></path><path d="M96.0001 24H92.0001V28H96.0001V24Z" fill="black"></path><path d="M96.0001 36H92.0001V40H96.0001V36Z" fill="black"></path><path d="M96.0001 44H92.0001V48H96.0001V44Z" fill="black"></path><path d="M96.0001 52H92.0001V56H96.0001V52Z" fill="black"></path><path d="M96.0001 56H92.0001V60H96.0001V56Z" fill="black"></path><path d="M96.0001 64H92.0001V68H96.0001V64Z" fill="black"></path><path d="M96.0001 68H92.0001V72H96.0001V68Z" fill="black"></path><path d="M96.0001 80H92.0001V84H96.0001V80Z" fill="black"></path><path d="M96.0001 84H92.0001V88H96.0001V84Z" fill="black"></path><path d="M96.0001 88H92.0001V92H96.0001V88Z" fill="black"></path><path d="M96.0001 92H92.0001V96H96.0001V92Z" fill="black"></path><path d="M100 0H96V4H100V0Z" fill="black"></path><path d="M100 3.99994H96V7.99994H100V3.99994Z" fill="black"></path><path d="M100 8H96V12H100V8Z" fill="black"></path><path d="M100 11.9999H96V15.9999H100V11.9999Z" fill="black"></path><path d="M100 16H96V20H100V16Z" fill="black"></path><path d="M100 19.9999H96V23.9999H100V19.9999Z" fill="black"></path><path d="M100 24H96V28H100V24Z" fill="black"></path><path d="M100 32H96V36H100V32Z" fill="black"></path><path d="M100 40H96V44H100V40Z" fill="black"></path><path d="M100 44H96V48H100V44Z" fill="black"></path><path d="M100 48H96V52H100V48Z" fill="black"></path><path d="M100 56H96V60H100V56Z" fill="black"></path><path d="M100 60H96V64H100V60Z" fill="black"></path><path d="M100 72H96V76H100V72Z" fill="black"></path><path d="M100 80H96V84H100V80Z" fill="black"></path><path d="M100 84H96V88H100V84Z" fill="black"></path><path d="M100 88H96V92H100V88Z" fill="black"></path><path d="M100 92H96V96H100V92Z" fill="black"></path><path d="M100 96H96V100H100V96Z" fill="black"></path></g><defs><clipPath id="clip0_929_16296"><rect width="100" height="100" fill="white"></rect></clipPath></defs></svg> 