<?xml version="1.0" encoding="UTF-8"?> <svg xmlns="http://www.w3.org/2000/svg" width="190" height="100" viewBox="0 0 190 100" fill="none"><path d="M72.1402 20.0846L47.2652 79.4335H31.0361L18.7951 32.0703C18.0519 29.1531 17.4057 28.0843 15.1455 26.8553C11.4554 24.8534 5.36153 22.9751 0 21.8094L0.364164 20.0846H26.488C29.818 20.0846 32.8114 22.3012 33.5675 26.1358L40.0324 60.4782L56.0101 20.0836H72.1402V20.0846ZM135.729 60.0566C135.794 44.3926 114.069 43.5297 114.218 36.5324C114.265 34.4028 116.292 32.1386 120.731 31.5607C122.93 31.2727 128.992 31.0531 135.866 34.2167L138.563 21.6313C134.869 20.2904 130.116 19 124.202 19C109.027 19 98.3472 27.067 98.2572 38.6184C98.1592 47.1624 105.88 51.9302 111.697 54.7693C117.681 57.6767 119.688 59.545 119.666 62.1456C119.623 66.1267 114.893 67.8842 110.473 67.9534C102.756 68.0722 98.278 65.8654 94.7086 64.2059L91.9259 77.208C95.5131 78.8536 102.134 80.2895 108.999 80.3618C125.128 80.3618 135.679 72.3947 135.729 60.0566ZM175.801 79.4335H190L177.606 20.0846H164.5C161.553 20.0846 159.067 21.8005 157.966 24.4387L134.928 79.4335H151.049L154.25 70.5689H173.947L175.801 79.4335ZM158.67 58.405L166.751 36.1217L171.402 58.405H158.67ZM94.0762 20.0846L81.3809 79.4335H66.0286L78.7289 20.0846H94.0762V20.0846Z" fill="#1434CB"></path></svg> 